<?xml version="1.0" encoding="utf-8"?>
<!-- Generator: Adobe Illustrator 15.0.0, SVG Export Plug-In . SVG Version: 6.00 Build 0)  -->
<!DOCTYPE svg PUBLIC "-//W3C//DTD SVG 1.1//EN" "http://www.w3.org/Graphics/SVG/1.1/DTD/svg11.dtd">
<svg version="1.1" id="图层_1" xmlns="http://www.w3.org/2000/svg" xmlns:xlink="http://www.w3.org/1999/xlink" x="0px" y="0px"
	 width="384.666px" height="64px" viewBox="0 0 384.666 64" enable-background="new 0 0 384.666 64" xml:space="preserve">
<linearGradient id="SVGID_1_" gradientUnits="userSpaceOnUse" x1="0" y1="48.9971" x2="25.002" y2="48.9971">
	<stop  offset="0" style="stop-color:#FFFFFF"/>
	<stop  offset="1" style="stop-color:#FFFFFF"/>
</linearGradient>
<polygon fill="url(#SVGID_1_)" points="13.351,60.482 11.9,64 0,64 0,33.994 25.002,33.994 23.179,37.775 4.275,37.813 
	4.275,60.475 "/>
<linearGradient id="SVGID_2_" gradientUnits="userSpaceOnUse" x1="13.085" y1="32.041" x2="67.0928" y2="32.041">
	<stop  offset="0" style="stop-color:#FFFFFF"/>
	<stop  offset="1" style="stop-color:#FFFFFF"/>
</linearGradient>
<polygon fill="url(#SVGID_2_)" points="13.085,64 20.797,64 40.893,18.053 47.553,33.994 35.311,33.994 33.573,37.766 
	48.753,37.766 59.845,64 67.093,64 41.125,0.082 "/>
<linearGradient id="SVGID_3_" gradientUnits="userSpaceOnUse" x1="88.1211" y1="50.918" x2="116.2729" y2="50.918">
	<stop  offset="0" style="stop-color:#FFFFFF"/>
	<stop  offset="1" style="stop-color:#FFFFFF"/>
</linearGradient>
<path fill="url(#SVGID_3_)" d="M111.332,41.721H93.068V60.05h18.264v-6.241l4.941,0.935v3.073c0,2.396-0.446,4.022-1.34,4.889
	c-0.889,0.863-2.586,1.296-5.077,1.296H94.484c-2.5,0-4.186-0.42-5.057-1.254c-0.869-0.83-1.306-2.479-1.306-4.931V44.039
	c0-2.434,0.437-4.077,1.313-4.919c0.896-0.867,2.572-1.284,5.049-1.284h15.372c2.491,0,4.188,0.434,5.077,1.311
	c0.894,0.871,1.34,2.506,1.34,4.894v2.478l-4.941,0.813L111.332,41.721L111.332,41.721z"/>
<linearGradient id="SVGID_4_" gradientUnits="userSpaceOnUse" x1="119.8452" y1="50.918" x2="151.583" y2="50.918">
	<stop  offset="0" style="stop-color:#FFFFFF"/>
	<stop  offset="1" style="stop-color:#FFFFFF"/>
</linearGradient>
<path fill="url(#SVGID_4_)" d="M119.845,44.039c0-2.387,0.444-4.021,1.348-4.895c0.9-0.875,2.586-1.31,5.061-1.31h18.911
	c2.461,0,4.155,0.435,5.06,1.31c0.909,0.873,1.358,2.508,1.358,4.895v13.777c0,2.395-0.449,4.021-1.343,4.888
	c-0.896,0.864-2.58,1.296-5.075,1.296h-18.911c-2.508,0-4.215-0.43-5.095-1.282c-0.884-0.85-1.313-2.483-1.313-4.901L119.845,44.039
	L119.845,44.039z M124.778,60.05h21.859V41.721h-21.859V60.05L124.778,60.05z"/>
<linearGradient id="SVGID_5_" gradientUnits="userSpaceOnUse" x1="156.0991" y1="50.918" x2="187.8438" y2="50.918">
	<stop  offset="0" style="stop-color:#FFFFFF"/>
	<stop  offset="1" style="stop-color:#FFFFFF"/>
</linearGradient>
<path fill="url(#SVGID_5_)" d="M156.099,44.039c0-2.387,0.455-4.021,1.356-4.895c0.904-0.875,2.594-1.31,5.063-1.31h18.905
	c2.474,0,4.173,0.435,5.062,1.31c0.912,0.873,1.359,2.508,1.359,4.895v13.777c0,2.395-0.444,4.021-1.349,4.888
	c-0.88,0.864-2.574,1.296-5.072,1.296h-18.905c-2.508,0-4.202-0.43-5.092-1.282c-0.887-0.85-1.327-2.483-1.327-4.901V44.039z
	 M161.043,60.05h21.859V41.721h-21.859V60.05z"/>
<linearGradient id="SVGID_6_" gradientUnits="userSpaceOnUse" x1="192.9951" y1="50.918" x2="218.2891" y2="50.918">
	<stop  offset="0" style="stop-color:#FFFFFF"/>
	<stop  offset="1" style="stop-color:#FFFFFF"/>
</linearGradient>
<path fill="url(#SVGID_6_)" d="M192.995,64V37.836h4.939V60.05h20.354V64H192.995z"/>
<linearGradient id="SVGID_7_" gradientUnits="userSpaceOnUse" x1="228.5205" y1="50.918" x2="263.6729" y2="50.918">
	<stop  offset="0" style="stop-color:#FFFFFF"/>
	<stop  offset="1" style="stop-color:#FFFFFF"/>
</linearGradient>
<path fill="url(#SVGID_7_)" d="M228.521,64l15.142-26.164h4.522L263.673,64h-5.363l-3.414-6.117h-18.08L233.466,64H228.521z
	 M238.89,54.115h13.898l-6.967-12.447L238.89,54.115z"/>
<linearGradient id="SVGID_8_" gradientUnits="userSpaceOnUse" x1="267.8672" y1="50.918" x2="299.1348" y2="50.918">
	<stop  offset="0" style="stop-color:#FFFFFF"/>
	<stop  offset="1" style="stop-color:#FFFFFF"/>
</linearGradient>
<path fill="url(#SVGID_8_)" d="M282.929,37.836c2.502,0,4.6,0.162,6.286,0.5c1.71,0.328,3.113,0.836,4.218,1.514
	c1.784,1.133,3.185,2.659,4.197,4.598c0.994,1.939,1.505,4.078,1.505,6.404c0,4.401-1.346,7.703-4.02,9.877
	C292.438,62.908,288.38,64,282.929,64h-15.062V37.836H282.929z M282.394,41.721h-9.588V60.05h9.588c4.267,0,7.295-0.716,9.097-2.153
	c1.795-1.443,2.702-3.799,2.702-7.104c0-3.213-0.92-5.529-2.74-6.95C289.636,42.432,286.608,41.721,282.394,41.721z"/>
<linearGradient id="SVGID_9_" gradientUnits="userSpaceOnUse" x1="303.8545" y1="50.918" x2="337.498" y2="50.918">
	<stop  offset="0" style="stop-color:#FFFFFF"/>
	<stop  offset="1" style="stop-color:#FFFFFF"/>
</linearGradient>
<path fill="url(#SVGID_9_)" d="M307.804,42.688c0,0.381,0.023,0.903,0.053,1.566c0.053,1.085,0.067,1.777,0.067,2.077V64h-4.069
	V37.836h4.069l13.025,16.975l11.966-16.975h4.583V64h-4.583V46.331c0-0.638,0.023-1.271,0.075-1.862
	c0.047-0.609,0.131-1.186,0.231-1.758c-0.285,0.826-0.578,1.557-0.873,2.191c-0.306,0.63-0.594,1.107-0.85,1.429l-10.072,13.542
	h-1.299L309.702,46.46c-0.361-0.467-0.709-1.009-1.029-1.644C308.36,44.204,308.069,43.501,307.804,42.688z"/>
<linearGradient id="SVGID_10_" gradientUnits="userSpaceOnUse" x1="343.5654" y1="50.9473" x2="348.4775" y2="50.9473">
	<stop  offset="0" style="stop-color:#FFFFFF"/>
	<stop  offset="1" style="stop-color:#FFFFFF"/>
</linearGradient>
<path fill="url(#SVGID_10_)" d="M348.478,64h-4.912V37.895h4.912V64z"/>
<linearGradient id="SVGID_11_" gradientUnits="userSpaceOnUse" x1="353.8076" y1="50.918" x2="384.0439" y2="50.918">
	<stop  offset="0" style="stop-color:#FFFFFF"/>
	<stop  offset="1" style="stop-color:#FFFFFF"/>
</linearGradient>
<path fill="url(#SVGID_11_)" d="M357.998,43.076c0.11,0.767,0.215,1.537,0.269,2.314c0.059,0.795,0.084,1.576,0.084,2.363V64h-4.543
	V37.836h3.767l19.209,17.092c0.561,0.48,1.099,1.01,1.608,1.594c0.514,0.594,1.026,1.246,1.525,1.986
	c-0.146-0.777-0.253-1.57-0.323-2.378c-0.069-0.795-0.098-1.635-0.098-2.499V37.836h4.548V64h-3.369l-19.601-17.339
	c-0.695-0.646-1.271-1.239-1.771-1.82C358.812,44.268,358.382,43.676,357.998,43.076z"/>
</svg>
